# xmcd CD database file
#
# Track frame offsets:
#	150
#	12883
#	25310
#	41089
#
# Disc length: 728 seconds
#
# Revision: 0
# Processed by: cddbd v1.5.2PL0 Copyright (c) Steve Scherf et al.
# Submitted via: CDex 1.70beta2
#
DISCID=2802d604
DTITLE=Big Old Bears - Tales of You
DYEAR=2010
DGENRE=Blues
TTITLE0=Undead
TTITLE1=Tales of you
TTITLE2=Lover 
TTITLE3=Honey
EXTD=YEAR: 2010
EXTT0=
EXTT1=
EXTT2=
EXTT3=
PLAYORDER=
